<mxfile host="65bd71144e">
    <diagram id="A0vFiNHQmTiCyJQdhDO7" name="Monolithic">
        <mxGraphModel dx="1448" dy="472" grid="1" gridSize="10" guides="1" tooltips="1" connect="1" arrows="1" fold="1" page="1" pageScale="1" pageWidth="850" pageHeight="1100" math="0" shadow="0">
            <root>
                <mxCell id="0"/>
                <mxCell id="1" parent="0"/>
                <mxCell id="7" value="" style="edgeStyle=none;html=1;" parent="1" source="2" target="6" edge="1">
                    <mxGeometry relative="1" as="geometry"/>
                </mxCell>
                <mxCell id="2" value="" style="rounded=1;whiteSpace=wrap;html=1;" parent="1" vertex="1">
                    <mxGeometry x="225" y="200" width="200" height="270" as="geometry"/>
                </mxCell>
                <mxCell id="3" value="Presentation" style="rounded=1;whiteSpace=wrap;html=1;fillColor=#1ba1e2;fontColor=#ffffff;strokeColor=#006EAF;" parent="1" vertex="1">
                    <mxGeometry x="265" y="230" width="120" height="60" as="geometry"/>
                </mxCell>
                <mxCell id="4" value="Business" style="rounded=1;whiteSpace=wrap;html=1;fillColor=#008a00;fontColor=#ffffff;strokeColor=#005700;" parent="1" vertex="1">
                    <mxGeometry x="265" y="300" width="120" height="60" as="geometry"/>
                </mxCell>
                <mxCell id="5" value="Data Access&lt;br&gt;" style="rounded=1;whiteSpace=wrap;html=1;fillColor=#d80073;fontColor=#ffffff;strokeColor=#A50040;" parent="1" vertex="1">
                    <mxGeometry x="265" y="370" width="120" height="60" as="geometry"/>
                </mxCell>
                <mxCell id="6" value="" style="aspect=fixed;perimeter=ellipsePerimeter;html=1;align=center;shadow=0;dashed=0;spacingTop=3;image;image=img/lib/active_directory/database.svg;" parent="1" vertex="1">
                    <mxGeometry x="300" y="540" width="50" height="37" as="geometry"/>
                </mxCell>
                <mxCell id="9" value="" style="edgeStyle=none;html=1;entryX=0.455;entryY=0.002;entryDx=0;entryDy=0;entryPerimeter=0;" parent="1" source="8" target="2" edge="1">
                    <mxGeometry relative="1" as="geometry">
                        <mxPoint x="319" y="190" as="targetPoint"/>
                    </mxGeometry>
                </mxCell>
                <mxCell id="8" value="" style="aspect=fixed;perimeter=ellipsePerimeter;html=1;align=center;shadow=0;dashed=0;spacingTop=3;image;image=img/lib/active_directory/vista_client.svg;" parent="1" vertex="1">
                    <mxGeometry x="300" y="90" width="38" height="50" as="geometry"/>
                </mxCell>
                <mxCell id="11" value="" style="verticalLabelPosition=bottom;shadow=0;dashed=0;align=center;html=1;verticalAlign=top;strokeWidth=1;shape=mxgraph.mockup.containers.userFemale;strokeColor=#666666;strokeColor2=#008cff;" parent="1" vertex="1">
                    <mxGeometry x="-15" y="600" width="100" height="100" as="geometry"/>
                </mxCell>
                <mxCell id="12" value="" style="verticalLabelPosition=bottom;shadow=0;dashed=0;align=center;html=1;verticalAlign=top;strokeWidth=1;shape=mxgraph.mockup.containers.userFemale;strokeColor=#666666;strokeColor2=#008cff;" parent="1" vertex="1">
                    <mxGeometry x="85" y="600" width="100" height="100" as="geometry"/>
                </mxCell>
                <mxCell id="13" value="" style="verticalLabelPosition=bottom;shadow=0;dashed=0;align=center;html=1;verticalAlign=top;strokeWidth=1;shape=mxgraph.mockup.containers.userMale;strokeColor=#666666;strokeColor2=#008cff;" parent="1" vertex="1">
                    <mxGeometry x="-15" y="700" width="100" height="100" as="geometry"/>
                </mxCell>
                <mxCell id="14" value="" style="verticalLabelPosition=bottom;shadow=0;dashed=0;align=center;html=1;verticalAlign=top;strokeWidth=1;shape=mxgraph.mockup.containers.userMale;strokeColor=#666666;strokeColor2=#008cff;" parent="1" vertex="1">
                    <mxGeometry x="85" y="700" width="100" height="100" as="geometry"/>
                </mxCell>
                <mxCell id="15" value="" style="verticalLabelPosition=bottom;shadow=0;dashed=0;align=center;html=1;verticalAlign=top;strokeWidth=1;shape=mxgraph.mockup.containers.userFemale;strokeColor=#666666;strokeColor2=#008cff;" parent="1" vertex="1">
                    <mxGeometry x="185" y="600" width="100" height="100" as="geometry"/>
                </mxCell>
                <mxCell id="16" value="" style="verticalLabelPosition=bottom;shadow=0;dashed=0;align=center;html=1;verticalAlign=top;strokeWidth=1;shape=mxgraph.mockup.containers.userFemale;strokeColor=#666666;strokeColor2=#008cff;" parent="1" vertex="1">
                    <mxGeometry x="285" y="600" width="100" height="100" as="geometry"/>
                </mxCell>
                <mxCell id="17" value="" style="verticalLabelPosition=bottom;shadow=0;dashed=0;align=center;html=1;verticalAlign=top;strokeWidth=1;shape=mxgraph.mockup.containers.userMale;strokeColor=#666666;strokeColor2=#008cff;" parent="1" vertex="1">
                    <mxGeometry x="185" y="700" width="100" height="100" as="geometry"/>
                </mxCell>
                <mxCell id="18" value="" style="verticalLabelPosition=bottom;shadow=0;dashed=0;align=center;html=1;verticalAlign=top;strokeWidth=1;shape=mxgraph.mockup.containers.userMale;strokeColor=#666666;strokeColor2=#008cff;" parent="1" vertex="1">
                    <mxGeometry x="285" y="700" width="100" height="100" as="geometry"/>
                </mxCell>
                <mxCell id="19" value="" style="verticalLabelPosition=bottom;shadow=0;dashed=0;align=center;html=1;verticalAlign=top;strokeWidth=1;shape=mxgraph.mockup.containers.userFemale;strokeColor=#666666;strokeColor2=#008cff;" parent="1" vertex="1">
                    <mxGeometry x="-15" y="800" width="100" height="100" as="geometry"/>
                </mxCell>
                <mxCell id="20" value="" style="verticalLabelPosition=bottom;shadow=0;dashed=0;align=center;html=1;verticalAlign=top;strokeWidth=1;shape=mxgraph.mockup.containers.userFemale;strokeColor=#666666;strokeColor2=#008cff;" parent="1" vertex="1">
                    <mxGeometry x="85" y="800" width="100" height="100" as="geometry"/>
                </mxCell>
                <mxCell id="21" value="" style="verticalLabelPosition=bottom;shadow=0;dashed=0;align=center;html=1;verticalAlign=top;strokeWidth=1;shape=mxgraph.mockup.containers.userMale;strokeColor=#666666;strokeColor2=#008cff;" parent="1" vertex="1">
                    <mxGeometry x="-15" y="900" width="100" height="100" as="geometry"/>
                </mxCell>
                <mxCell id="22" value="" style="verticalLabelPosition=bottom;shadow=0;dashed=0;align=center;html=1;verticalAlign=top;strokeWidth=1;shape=mxgraph.mockup.containers.userMale;strokeColor=#666666;strokeColor2=#008cff;" parent="1" vertex="1">
                    <mxGeometry x="85" y="900" width="100" height="100" as="geometry"/>
                </mxCell>
                <mxCell id="23" value="" style="verticalLabelPosition=bottom;shadow=0;dashed=0;align=center;html=1;verticalAlign=top;strokeWidth=1;shape=mxgraph.mockup.containers.userFemale;strokeColor=#666666;strokeColor2=#008cff;" parent="1" vertex="1">
                    <mxGeometry x="185" y="800" width="100" height="100" as="geometry"/>
                </mxCell>
                <mxCell id="24" value="" style="verticalLabelPosition=bottom;shadow=0;dashed=0;align=center;html=1;verticalAlign=top;strokeWidth=1;shape=mxgraph.mockup.containers.userFemale;strokeColor=#666666;strokeColor2=#008cff;" parent="1" vertex="1">
                    <mxGeometry x="285" y="800" width="100" height="100" as="geometry"/>
                </mxCell>
                <mxCell id="25" value="" style="verticalLabelPosition=bottom;shadow=0;dashed=0;align=center;html=1;verticalAlign=top;strokeWidth=1;shape=mxgraph.mockup.containers.userMale;strokeColor=#666666;strokeColor2=#008cff;" parent="1" vertex="1">
                    <mxGeometry x="185" y="900" width="100" height="100" as="geometry"/>
                </mxCell>
                <mxCell id="26" value="" style="verticalLabelPosition=bottom;shadow=0;dashed=0;align=center;html=1;verticalAlign=top;strokeWidth=1;shape=mxgraph.mockup.containers.userMale;strokeColor=#666666;strokeColor2=#008cff;" parent="1" vertex="1">
                    <mxGeometry x="285" y="900" width="100" height="100" as="geometry"/>
                </mxCell>
            </root>
        </mxGraphModel>
    </diagram>
    <diagram id="JKiiKIT18qIiESbKZDRe" name="Microservices">
        <mxGraphModel dx="1124" dy="674" grid="1" gridSize="10" guides="1" tooltips="1" connect="1" arrows="1" fold="1" page="1" pageScale="1" pageWidth="850" pageHeight="1100" math="0" shadow="0">
            <root>
                <mxCell id="SvbW-Z6dOIzF1Xm52G7K-0"/>
                <mxCell id="SvbW-Z6dOIzF1Xm52G7K-1" parent="SvbW-Z6dOIzF1Xm52G7K-0"/>
                <mxCell id="YFjAwNYyr86dlTPq8VIt-0" value="" style="edgeStyle=none;html=1;" parent="SvbW-Z6dOIzF1Xm52G7K-1" source="YFjAwNYyr86dlTPq8VIt-1" target="YFjAwNYyr86dlTPq8VIt-5" edge="1">
                    <mxGeometry relative="1" as="geometry"/>
                </mxCell>
                <mxCell id="YFjAwNYyr86dlTPq8VIt-1" value="" style="rounded=1;whiteSpace=wrap;html=1;" parent="SvbW-Z6dOIzF1Xm52G7K-1" vertex="1">
                    <mxGeometry x="225" y="200" width="200" height="270" as="geometry"/>
                </mxCell>
                <mxCell id="YFjAwNYyr86dlTPq8VIt-2" value="Presentation" style="rounded=1;whiteSpace=wrap;html=1;fillColor=#1ba1e2;fontColor=#ffffff;strokeColor=#006EAF;" parent="SvbW-Z6dOIzF1Xm52G7K-1" vertex="1">
                    <mxGeometry x="265" y="230" width="120" height="60" as="geometry"/>
                </mxCell>
                <mxCell id="YFjAwNYyr86dlTPq8VIt-3" value="Business" style="rounded=1;whiteSpace=wrap;html=1;fillColor=#008a00;fontColor=#ffffff;strokeColor=#005700;" parent="SvbW-Z6dOIzF1Xm52G7K-1" vertex="1">
                    <mxGeometry x="265" y="300" width="120" height="60" as="geometry"/>
                </mxCell>
                <mxCell id="YFjAwNYyr86dlTPq8VIt-4" value="Data Access&lt;br&gt;" style="rounded=1;whiteSpace=wrap;html=1;fillColor=#d80073;fontColor=#ffffff;strokeColor=#A50040;" parent="SvbW-Z6dOIzF1Xm52G7K-1" vertex="1">
                    <mxGeometry x="265" y="370" width="120" height="60" as="geometry"/>
                </mxCell>
                <mxCell id="YFjAwNYyr86dlTPq8VIt-5" value="" style="aspect=fixed;perimeter=ellipsePerimeter;html=1;align=center;shadow=0;dashed=0;spacingTop=3;image;image=img/lib/active_directory/database.svg;" parent="SvbW-Z6dOIzF1Xm52G7K-1" vertex="1">
                    <mxGeometry x="300" y="540" width="50" height="37" as="geometry"/>
                </mxCell>
                <mxCell id="YFjAwNYyr86dlTPq8VIt-8" value="" style="edgeStyle=none;html=1;" parent="SvbW-Z6dOIzF1Xm52G7K-1" source="YFjAwNYyr86dlTPq8VIt-9" target="YFjAwNYyr86dlTPq8VIt-13" edge="1">
                    <mxGeometry relative="1" as="geometry"/>
                </mxCell>
                <mxCell id="YFjAwNYyr86dlTPq8VIt-9" value="" style="rounded=1;whiteSpace=wrap;html=1;" parent="SvbW-Z6dOIzF1Xm52G7K-1" vertex="1">
                    <mxGeometry x="720" y="200" width="200" height="270" as="geometry"/>
                </mxCell>
                <mxCell id="YFjAwNYyr86dlTPq8VIt-10" value="Presentation" style="rounded=1;whiteSpace=wrap;html=1;fillColor=#1ba1e2;fontColor=#ffffff;strokeColor=#006EAF;" parent="SvbW-Z6dOIzF1Xm52G7K-1" vertex="1">
                    <mxGeometry x="760" y="230" width="120" height="60" as="geometry"/>
                </mxCell>
                <mxCell id="YFjAwNYyr86dlTPq8VIt-11" value="Business" style="rounded=1;whiteSpace=wrap;html=1;fillColor=#008a00;fontColor=#ffffff;strokeColor=#005700;" parent="SvbW-Z6dOIzF1Xm52G7K-1" vertex="1">
                    <mxGeometry x="760" y="300" width="120" height="60" as="geometry"/>
                </mxCell>
                <mxCell id="YFjAwNYyr86dlTPq8VIt-12" value="Data Access&lt;br&gt;" style="rounded=1;whiteSpace=wrap;html=1;fillColor=#d80073;fontColor=#ffffff;strokeColor=#A50040;" parent="SvbW-Z6dOIzF1Xm52G7K-1" vertex="1">
                    <mxGeometry x="760" y="370" width="120" height="60" as="geometry"/>
                </mxCell>
                <mxCell id="YFjAwNYyr86dlTPq8VIt-13" value="" style="aspect=fixed;perimeter=ellipsePerimeter;html=1;align=center;shadow=0;dashed=0;spacingTop=3;image;image=img/lib/active_directory/database.svg;" parent="SvbW-Z6dOIzF1Xm52G7K-1" vertex="1">
                    <mxGeometry x="795" y="540" width="50" height="37" as="geometry"/>
                </mxCell>
                <mxCell id="YFjAwNYyr86dlTPq8VIt-14" value="" style="edgeStyle=none;html=1;" parent="SvbW-Z6dOIzF1Xm52G7K-1" source="YFjAwNYyr86dlTPq8VIt-15" target="YFjAwNYyr86dlTPq8VIt-19" edge="1">
                    <mxGeometry relative="1" as="geometry"/>
                </mxCell>
                <mxCell id="YFjAwNYyr86dlTPq8VIt-15" value="" style="rounded=1;whiteSpace=wrap;html=1;" parent="SvbW-Z6dOIzF1Xm52G7K-1" vertex="1">
                    <mxGeometry x="960" y="200" width="200" height="270" as="geometry"/>
                </mxCell>
                <mxCell id="YFjAwNYyr86dlTPq8VIt-16" value="Presentation" style="rounded=1;whiteSpace=wrap;html=1;fillColor=#1ba1e2;fontColor=#ffffff;strokeColor=#006EAF;" parent="SvbW-Z6dOIzF1Xm52G7K-1" vertex="1">
                    <mxGeometry x="1000" y="230" width="120" height="60" as="geometry"/>
                </mxCell>
                <mxCell id="YFjAwNYyr86dlTPq8VIt-17" value="Business" style="rounded=1;whiteSpace=wrap;html=1;fillColor=#008a00;fontColor=#ffffff;strokeColor=#005700;" parent="SvbW-Z6dOIzF1Xm52G7K-1" vertex="1">
                    <mxGeometry x="1000" y="300" width="120" height="60" as="geometry"/>
                </mxCell>
                <mxCell id="YFjAwNYyr86dlTPq8VIt-18" value="Data Access&lt;br&gt;" style="rounded=1;whiteSpace=wrap;html=1;fillColor=#d80073;fontColor=#ffffff;strokeColor=#A50040;" parent="SvbW-Z6dOIzF1Xm52G7K-1" vertex="1">
                    <mxGeometry x="1000" y="370" width="120" height="60" as="geometry"/>
                </mxCell>
                <mxCell id="YFjAwNYyr86dlTPq8VIt-19" value="" style="aspect=fixed;perimeter=ellipsePerimeter;html=1;align=center;shadow=0;dashed=0;spacingTop=3;image;image=img/lib/active_directory/database.svg;" parent="SvbW-Z6dOIzF1Xm52G7K-1" vertex="1">
                    <mxGeometry x="1035" y="540" width="50" height="37" as="geometry"/>
                </mxCell>
                <mxCell id="YFjAwNYyr86dlTPq8VIt-20" value="" style="edgeStyle=none;html=1;" parent="SvbW-Z6dOIzF1Xm52G7K-1" source="YFjAwNYyr86dlTPq8VIt-21" target="YFjAwNYyr86dlTPq8VIt-25" edge="1">
                    <mxGeometry relative="1" as="geometry"/>
                </mxCell>
                <mxCell id="YFjAwNYyr86dlTPq8VIt-21" value="" style="rounded=1;whiteSpace=wrap;html=1;" parent="SvbW-Z6dOIzF1Xm52G7K-1" vertex="1">
                    <mxGeometry x="1210" y="200" width="200" height="270" as="geometry"/>
                </mxCell>
                <mxCell id="YFjAwNYyr86dlTPq8VIt-22" value="Presentation" style="rounded=1;whiteSpace=wrap;html=1;fillColor=#1ba1e2;fontColor=#ffffff;strokeColor=#006EAF;" parent="SvbW-Z6dOIzF1Xm52G7K-1" vertex="1">
                    <mxGeometry x="1250" y="230" width="120" height="60" as="geometry"/>
                </mxCell>
                <mxCell id="YFjAwNYyr86dlTPq8VIt-23" value="Business" style="rounded=1;whiteSpace=wrap;html=1;fillColor=#008a00;fontColor=#ffffff;strokeColor=#005700;" parent="SvbW-Z6dOIzF1Xm52G7K-1" vertex="1">
                    <mxGeometry x="1250" y="300" width="120" height="60" as="geometry"/>
                </mxCell>
                <mxCell id="YFjAwNYyr86dlTPq8VIt-24" value="Data Access&lt;br&gt;" style="rounded=1;whiteSpace=wrap;html=1;fillColor=#d80073;fontColor=#ffffff;strokeColor=#A50040;" parent="SvbW-Z6dOIzF1Xm52G7K-1" vertex="1">
                    <mxGeometry x="1250" y="370" width="120" height="60" as="geometry"/>
                </mxCell>
                <mxCell id="YFjAwNYyr86dlTPq8VIt-25" value="" style="aspect=fixed;perimeter=ellipsePerimeter;html=1;align=center;shadow=0;dashed=0;spacingTop=3;image;image=img/lib/active_directory/database.svg;" parent="SvbW-Z6dOIzF1Xm52G7K-1" vertex="1">
                    <mxGeometry x="1285" y="540" width="50" height="37" as="geometry"/>
                </mxCell>
                <mxCell id="YFjAwNYyr86dlTPq8VIt-26" value="" style="verticalLabelPosition=bottom;shadow=0;dashed=0;align=center;html=1;verticalAlign=top;strokeWidth=1;shape=mxgraph.mockup.containers.userFemale;strokeColor=#666666;strokeColor2=#008cff;" parent="SvbW-Z6dOIzF1Xm52G7K-1" vertex="1">
                    <mxGeometry x="200" y="590" width="100" height="100" as="geometry"/>
                </mxCell>
                <mxCell id="YFjAwNYyr86dlTPq8VIt-27" value="" style="verticalLabelPosition=bottom;shadow=0;dashed=0;align=center;html=1;verticalAlign=top;strokeWidth=1;shape=mxgraph.mockup.containers.userMale;strokeColor=#666666;strokeColor2=#008cff;" parent="SvbW-Z6dOIzF1Xm52G7K-1" vertex="1">
                    <mxGeometry x="300" y="590" width="100" height="100" as="geometry"/>
                </mxCell>
                <mxCell id="YFjAwNYyr86dlTPq8VIt-28" value="" style="verticalLabelPosition=bottom;shadow=0;dashed=0;align=center;html=1;verticalAlign=top;strokeWidth=1;shape=mxgraph.mockup.containers.userFemale;strokeColor=#666666;strokeColor2=#008cff;" parent="SvbW-Z6dOIzF1Xm52G7K-1" vertex="1">
                    <mxGeometry x="460" y="590" width="100" height="100" as="geometry"/>
                </mxCell>
                <mxCell id="YFjAwNYyr86dlTPq8VIt-29" value="" style="verticalLabelPosition=bottom;shadow=0;dashed=0;align=center;html=1;verticalAlign=top;strokeWidth=1;shape=mxgraph.mockup.containers.userMale;strokeColor=#666666;strokeColor2=#008cff;" parent="SvbW-Z6dOIzF1Xm52G7K-1" vertex="1">
                    <mxGeometry x="560" y="590" width="100" height="100" as="geometry"/>
                </mxCell>
                <mxCell id="YFjAwNYyr86dlTPq8VIt-30" value="" style="verticalLabelPosition=bottom;shadow=0;dashed=0;align=center;html=1;verticalAlign=top;strokeWidth=1;shape=mxgraph.mockup.containers.userFemale;strokeColor=#666666;strokeColor2=#008cff;" parent="SvbW-Z6dOIzF1Xm52G7K-1" vertex="1">
                    <mxGeometry x="460" y="690" width="100" height="100" as="geometry"/>
                </mxCell>
                <mxCell id="YFjAwNYyr86dlTPq8VIt-31" value="" style="verticalLabelPosition=bottom;shadow=0;dashed=0;align=center;html=1;verticalAlign=top;strokeWidth=1;shape=mxgraph.mockup.containers.userMale;strokeColor=#666666;strokeColor2=#008cff;" parent="SvbW-Z6dOIzF1Xm52G7K-1" vertex="1">
                    <mxGeometry x="560" y="690" width="100" height="100" as="geometry"/>
                </mxCell>
                <mxCell id="YFjAwNYyr86dlTPq8VIt-32" value="" style="verticalLabelPosition=bottom;shadow=0;dashed=0;align=center;html=1;verticalAlign=top;strokeWidth=1;shape=mxgraph.mockup.containers.userFemale;strokeColor=#666666;strokeColor2=#008cff;" parent="SvbW-Z6dOIzF1Xm52G7K-1" vertex="1">
                    <mxGeometry x="720" y="590" width="100" height="100" as="geometry"/>
                </mxCell>
                <mxCell id="YFjAwNYyr86dlTPq8VIt-33" value="" style="verticalLabelPosition=bottom;shadow=0;dashed=0;align=center;html=1;verticalAlign=top;strokeWidth=1;shape=mxgraph.mockup.containers.userMale;strokeColor=#666666;strokeColor2=#008cff;" parent="SvbW-Z6dOIzF1Xm52G7K-1" vertex="1">
                    <mxGeometry x="820" y="590" width="100" height="100" as="geometry"/>
                </mxCell>
                <mxCell id="YFjAwNYyr86dlTPq8VIt-34" value="" style="verticalLabelPosition=bottom;shadow=0;dashed=0;align=center;html=1;verticalAlign=top;strokeWidth=1;shape=mxgraph.mockup.containers.userFemale;strokeColor=#666666;strokeColor2=#008cff;" parent="SvbW-Z6dOIzF1Xm52G7K-1" vertex="1">
                    <mxGeometry x="720" y="690" width="100" height="100" as="geometry"/>
                </mxCell>
                <mxCell id="YFjAwNYyr86dlTPq8VIt-35" value="" style="verticalLabelPosition=bottom;shadow=0;dashed=0;align=center;html=1;verticalAlign=top;strokeWidth=1;shape=mxgraph.mockup.containers.userMale;strokeColor=#666666;strokeColor2=#008cff;" parent="SvbW-Z6dOIzF1Xm52G7K-1" vertex="1">
                    <mxGeometry x="820" y="690" width="100" height="100" as="geometry"/>
                </mxCell>
                <mxCell id="YFjAwNYyr86dlTPq8VIt-36" value="" style="verticalLabelPosition=bottom;shadow=0;dashed=0;align=center;html=1;verticalAlign=top;strokeWidth=1;shape=mxgraph.mockup.containers.userFemale;strokeColor=#666666;strokeColor2=#008cff;" parent="SvbW-Z6dOIzF1Xm52G7K-1" vertex="1">
                    <mxGeometry x="720" y="790" width="100" height="100" as="geometry"/>
                </mxCell>
                <mxCell id="YFjAwNYyr86dlTPq8VIt-37" value="" style="verticalLabelPosition=bottom;shadow=0;dashed=0;align=center;html=1;verticalAlign=top;strokeWidth=1;shape=mxgraph.mockup.containers.userMale;strokeColor=#666666;strokeColor2=#008cff;" parent="SvbW-Z6dOIzF1Xm52G7K-1" vertex="1">
                    <mxGeometry x="820" y="790" width="100" height="100" as="geometry"/>
                </mxCell>
                <mxCell id="YFjAwNYyr86dlTPq8VIt-38" value="" style="verticalLabelPosition=bottom;shadow=0;dashed=0;align=center;html=1;verticalAlign=top;strokeWidth=1;shape=mxgraph.mockup.containers.userFemale;strokeColor=#666666;strokeColor2=#008cff;" parent="SvbW-Z6dOIzF1Xm52G7K-1" vertex="1">
                    <mxGeometry x="720" y="890" width="100" height="100" as="geometry"/>
                </mxCell>
                <mxCell id="YFjAwNYyr86dlTPq8VIt-39" value="" style="verticalLabelPosition=bottom;shadow=0;dashed=0;align=center;html=1;verticalAlign=top;strokeWidth=1;shape=mxgraph.mockup.containers.userMale;strokeColor=#666666;strokeColor2=#008cff;" parent="SvbW-Z6dOIzF1Xm52G7K-1" vertex="1">
                    <mxGeometry x="820" y="890" width="100" height="100" as="geometry"/>
                </mxCell>
                <mxCell id="YFjAwNYyr86dlTPq8VIt-40" value="" style="verticalLabelPosition=bottom;shadow=0;dashed=0;align=center;html=1;verticalAlign=top;strokeWidth=1;shape=mxgraph.mockup.containers.userMale;strokeColor=#666666;strokeColor2=#008cff;" parent="SvbW-Z6dOIzF1Xm52G7K-1" vertex="1">
                    <mxGeometry x="1000" y="590" width="100" height="100" as="geometry"/>
                </mxCell>
                <mxCell id="Qc4IJPgzjvTvtHi68XhX-0" value="Hasta Kayıt" style="text;html=1;align=center;verticalAlign=middle;resizable=0;points=[];autosize=1;strokeColor=none;fillColor=none;" parent="SvbW-Z6dOIzF1Xm52G7K-1" vertex="1">
                    <mxGeometry x="270" y="160" width="80" height="20" as="geometry"/>
                </mxCell>
                <mxCell id="Qc4IJPgzjvTvtHi68XhX-1" value="Rezervasyon" style="text;html=1;align=center;verticalAlign=middle;resizable=0;points=[];autosize=1;strokeColor=none;fillColor=none;" parent="SvbW-Z6dOIzF1Xm52G7K-1" vertex="1">
                    <mxGeometry x="775" y="160" width="90" height="20" as="geometry"/>
                </mxCell>
                <mxCell id="Qc4IJPgzjvTvtHi68XhX-2" value="Hasta Ödeme" style="text;html=1;align=center;verticalAlign=middle;resizable=0;points=[];autosize=1;strokeColor=none;fillColor=none;" parent="SvbW-Z6dOIzF1Xm52G7K-1" vertex="1">
                    <mxGeometry x="1015" y="160" width="90" height="20" as="geometry"/>
                </mxCell>
                <mxCell id="Qc4IJPgzjvTvtHi68XhX-3" value="Hasta Takip" style="text;html=1;align=center;verticalAlign=middle;resizable=0;points=[];autosize=1;strokeColor=none;fillColor=none;" parent="SvbW-Z6dOIzF1Xm52G7K-1" vertex="1">
                    <mxGeometry x="1270" y="160" width="80" height="20" as="geometry"/>
                </mxCell>
                <mxCell id="Qc4IJPgzjvTvtHi68XhX-5" value="Hasta Bilgisi" style="rounded=0;whiteSpace=wrap;html=1;fillColor=#0050ef;fontColor=#ffffff;strokeColor=#001DBC;" parent="SvbW-Z6dOIzF1Xm52G7K-1" vertex="1">
                    <mxGeometry x="470" y="130" width="120" height="60" as="geometry"/>
                </mxCell>
                <mxCell id="Qc4IJPgzjvTvtHi68XhX-8" style="edgeStyle=none;html=1;entryX=-0.057;entryY=0.38;entryDx=0;entryDy=0;entryPerimeter=0;" parent="SvbW-Z6dOIzF1Xm52G7K-1" source="Qc4IJPgzjvTvtHi68XhX-4" target="Qc4IJPgzjvTvtHi68XhX-7" edge="1">
                    <mxGeometry relative="1" as="geometry"/>
                </mxCell>
                <mxCell id="Qc4IJPgzjvTvtHi68XhX-4" value="Yeni Hasta Kaydedildi" style="rounded=0;whiteSpace=wrap;html=1;fillColor=#a20025;fontColor=#ffffff;strokeColor=#6F0000;" parent="SvbW-Z6dOIzF1Xm52G7K-1" vertex="1">
                    <mxGeometry x="440" y="90" width="120" height="60" as="geometry"/>
                </mxCell>
                <mxCell id="Qc4IJPgzjvTvtHi68XhX-6" value="" style="shape=flexArrow;endArrow=classic;html=1;entryX=0;entryY=1;entryDx=0;entryDy=0;" parent="SvbW-Z6dOIzF1Xm52G7K-1" target="Qc4IJPgzjvTvtHi68XhX-4" edge="1">
                    <mxGeometry width="50" height="50" relative="1" as="geometry">
                        <mxPoint x="390" y="270" as="sourcePoint"/>
                        <mxPoint x="440" y="220" as="targetPoint"/>
                    </mxGeometry>
                </mxCell>
                <mxCell id="Qc4IJPgzjvTvtHi68XhX-9" style="edgeStyle=none;html=1;entryX=0.629;entryY=-0.006;entryDx=0;entryDy=0;entryPerimeter=0;" parent="SvbW-Z6dOIzF1Xm52G7K-1" source="Qc4IJPgzjvTvtHi68XhX-7" target="YFjAwNYyr86dlTPq8VIt-9" edge="1">
                    <mxGeometry relative="1" as="geometry"/>
                </mxCell>
                <mxCell id="Qc4IJPgzjvTvtHi68XhX-10" style="edgeStyle=none;html=1;exitX=0;exitY=0;exitDx=0;exitDy=260;exitPerimeter=0;entryX=0.63;entryY=0.004;entryDx=0;entryDy=0;entryPerimeter=0;" parent="SvbW-Z6dOIzF1Xm52G7K-1" source="Qc4IJPgzjvTvtHi68XhX-7" target="YFjAwNYyr86dlTPq8VIt-15" edge="1">
                    <mxGeometry relative="1" as="geometry"/>
                </mxCell>
                <mxCell id="Qc4IJPgzjvTvtHi68XhX-11" style="edgeStyle=none;html=1;entryX=0.429;entryY=-0.006;entryDx=0;entryDy=0;entryPerimeter=0;" parent="SvbW-Z6dOIzF1Xm52G7K-1" source="Qc4IJPgzjvTvtHi68XhX-7" target="YFjAwNYyr86dlTPq8VIt-21" edge="1">
                    <mxGeometry relative="1" as="geometry"/>
                </mxCell>
                <mxCell id="Qc4IJPgzjvTvtHi68XhX-7" value="" style="verticalLabelPosition=bottom;verticalAlign=top;html=1;shape=mxgraph.infographic.cylinder;fillColor=#10739E;strokeColor=none;rotation=-90;" parent="SvbW-Z6dOIzF1Xm52G7K-1" vertex="1">
                    <mxGeometry x="685" y="-95" width="60" height="270" as="geometry"/>
                </mxCell>
            </root>
        </mxGraphModel>
    </diagram>
    <diagram id="gicdMA6r9WXkcTiZpZdK" name="Page-3">
        <mxGraphModel dx="598" dy="472" grid="1" gridSize="10" guides="1" tooltips="1" connect="1" arrows="1" fold="1" page="1" pageScale="1" pageWidth="850" pageHeight="1100" math="0" shadow="0">
            <root>
                <mxCell id="vj7G1wE5bfr0IH3XdLDL-0"/>
                <mxCell id="vj7G1wE5bfr0IH3XdLDL-1" parent="vj7G1wE5bfr0IH3XdLDL-0"/>
                <mxCell id="vj7G1wE5bfr0IH3XdLDL-27" style="edgeStyle=none;html=1;entryX=0.402;entryY=0.985;entryDx=0;entryDy=0;entryPerimeter=0;" parent="vj7G1wE5bfr0IH3XdLDL-1" source="vj7G1wE5bfr0IH3XdLDL-2" target="vj7G1wE5bfr0IH3XdLDL-26" edge="1">
                    <mxGeometry relative="1" as="geometry"/>
                </mxCell>
                <mxCell id="vj7G1wE5bfr0IH3XdLDL-2" value="Catalog" style="rounded=1;whiteSpace=wrap;html=1;fillColor=#60a917;fontColor=#ffffff;strokeColor=#2D7600;" parent="vj7G1wE5bfr0IH3XdLDL-1" vertex="1">
                    <mxGeometry x="40" y="340" width="160" height="70" as="geometry"/>
                </mxCell>
                <mxCell id="vj7G1wE5bfr0IH3XdLDL-3" value="Basket" style="rounded=1;whiteSpace=wrap;html=1;fillColor=#1ba1e2;fontColor=#ffffff;strokeColor=#006EAF;" parent="vj7G1wE5bfr0IH3XdLDL-1" vertex="1">
                    <mxGeometry x="290" y="340" width="160" height="70" as="geometry"/>
                </mxCell>
                <mxCell id="vj7G1wE5bfr0IH3XdLDL-4" value="Order" style="rounded=1;whiteSpace=wrap;html=1;fillColor=#d80073;fontColor=#ffffff;strokeColor=#A50040;" parent="vj7G1wE5bfr0IH3XdLDL-1" vertex="1">
                    <mxGeometry x="520" y="340" width="160" height="60" as="geometry"/>
                </mxCell>
                <mxCell id="vj7G1wE5bfr0IH3XdLDL-5" value="Web Client" style="rounded=1;whiteSpace=wrap;html=1;" parent="vj7G1wE5bfr0IH3XdLDL-1" vertex="1">
                    <mxGeometry x="260" y="20" width="150" height="50" as="geometry"/>
                </mxCell>
                <mxCell id="vj7G1wE5bfr0IH3XdLDL-13" value="103.46.75" style="text;html=1;align=center;verticalAlign=middle;resizable=0;points=[];autosize=1;strokeColor=none;fillColor=none;" parent="vj7G1wE5bfr0IH3XdLDL-1" vertex="1">
                    <mxGeometry x="85" y="420" width="70" height="20" as="geometry"/>
                </mxCell>
                <mxCell id="vj7G1wE5bfr0IH3XdLDL-14" value="183.46.75" style="text;html=1;align=center;verticalAlign=middle;resizable=0;points=[];autosize=1;strokeColor=none;fillColor=none;" parent="vj7G1wE5bfr0IH3XdLDL-1" vertex="1">
                    <mxGeometry x="320" y="400" width="70" height="20" as="geometry"/>
                </mxCell>
                <mxCell id="vj7G1wE5bfr0IH3XdLDL-15" value="203.46.75" style="text;html=1;align=center;verticalAlign=middle;resizable=0;points=[];autosize=1;strokeColor=none;fillColor=none;" parent="vj7G1wE5bfr0IH3XdLDL-1" vertex="1">
                    <mxGeometry x="555" y="390" width="70" height="20" as="geometry"/>
                </mxCell>
                <mxCell id="vj7G1wE5bfr0IH3XdLDL-18" style="edgeStyle=none;html=1;entryX=0.25;entryY=0;entryDx=0;entryDy=0;" parent="vj7G1wE5bfr0IH3XdLDL-1" source="vj7G1wE5bfr0IH3XdLDL-16" target="vj7G1wE5bfr0IH3XdLDL-4" edge="1">
                    <mxGeometry relative="1" as="geometry">
                        <mxPoint x="555" y="330" as="targetPoint"/>
                    </mxGeometry>
                </mxCell>
                <mxCell id="vj7G1wE5bfr0IH3XdLDL-24" style="edgeStyle=none;html=1;" parent="vj7G1wE5bfr0IH3XdLDL-1" source="vj7G1wE5bfr0IH3XdLDL-16" target="vj7G1wE5bfr0IH3XdLDL-3" edge="1">
                    <mxGeometry relative="1" as="geometry"/>
                </mxCell>
                <mxCell id="vj7G1wE5bfr0IH3XdLDL-16" value="" style="verticalLabelPosition=bottom;verticalAlign=top;html=1;shape=mxgraph.infographic.cylinder;fillColor=#10739E;strokeColor=none;rotation=-90;" parent="vj7G1wE5bfr0IH3XdLDL-1" vertex="1">
                    <mxGeometry x="350" y="140" width="60" height="170" as="geometry"/>
                </mxCell>
                <mxCell id="vj7G1wE5bfr0IH3XdLDL-23" value="Kafka, AWS SQS, Azure Service Bus, RabbitMQ" style="text;html=1;align=center;verticalAlign=middle;resizable=0;points=[];autosize=1;strokeColor=none;fillColor=none;" parent="vj7G1wE5bfr0IH3XdLDL-1" vertex="1">
                    <mxGeometry x="220" y="80" width="270" height="20" as="geometry"/>
                </mxCell>
                <mxCell id="vj7G1wE5bfr0IH3XdLDL-28" style="edgeStyle=none;html=1;entryX=0;entryY=0;entryDx=0;entryDy=10;entryPerimeter=0;" parent="vj7G1wE5bfr0IH3XdLDL-1" source="vj7G1wE5bfr0IH3XdLDL-26" target="vj7G1wE5bfr0IH3XdLDL-16" edge="1">
                    <mxGeometry relative="1" as="geometry"/>
                </mxCell>
                <mxCell id="vj7G1wE5bfr0IH3XdLDL-26" value="Ürün Fiyatı Değişti!" style="rounded=1;whiteSpace=wrap;html=1;" parent="vj7G1wE5bfr0IH3XdLDL-1" vertex="1">
                    <mxGeometry x="80" y="220" width="120" height="60" as="geometry"/>
                </mxCell>
            </root>
        </mxGraphModel>
    </diagram>
    <diagram id="9dO8x0lCamE9-8EsW9QY" name="Page-4">
        <mxGraphModel dx="598" dy="472" grid="1" gridSize="10" guides="1" tooltips="1" connect="1" arrows="1" fold="1" page="1" pageScale="1" pageWidth="850" pageHeight="1100" math="0" shadow="0">
            <root>
                <mxCell id="WB9BYZYiK1lMqsncY1d_-0"/>
                <mxCell id="WB9BYZYiK1lMqsncY1d_-1" parent="WB9BYZYiK1lMqsncY1d_-0"/>
            </root>
        </mxGraphModel>
    </diagram>
    <diagram id="Wdszs0v_uwkDW3VmSkw8" name="API Gateway">
        <mxGraphModel dx="1124" dy="674" grid="1" gridSize="10" guides="1" tooltips="1" connect="1" arrows="1" fold="1" page="1" pageScale="1" pageWidth="850" pageHeight="1100" math="0" shadow="0">
            <root>
                <mxCell id="fdIq8-UfXrekywhDJJgM-0"/>
                <mxCell id="fdIq8-UfXrekywhDJJgM-1" parent="fdIq8-UfXrekywhDJJgM-0"/>
                <mxCell id="fdIq8-UfXrekywhDJJgM-2" value="" style="edgeStyle=none;html=1;" edge="1" parent="fdIq8-UfXrekywhDJJgM-1" source="fdIq8-UfXrekywhDJJgM-3" target="fdIq8-UfXrekywhDJJgM-7">
                    <mxGeometry relative="1" as="geometry"/>
                </mxCell>
                <mxCell id="fdIq8-UfXrekywhDJJgM-3" value="" style="rounded=1;whiteSpace=wrap;html=1;" vertex="1" parent="fdIq8-UfXrekywhDJJgM-1">
                    <mxGeometry x="110" y="660" width="200" height="270" as="geometry"/>
                </mxCell>
                <mxCell id="fdIq8-UfXrekywhDJJgM-4" value="Presentation" style="rounded=1;whiteSpace=wrap;html=1;fillColor=#1ba1e2;fontColor=#ffffff;strokeColor=#006EAF;" vertex="1" parent="fdIq8-UfXrekywhDJJgM-1">
                    <mxGeometry x="150" y="690" width="120" height="60" as="geometry"/>
                </mxCell>
                <mxCell id="fdIq8-UfXrekywhDJJgM-5" value="Business" style="rounded=1;whiteSpace=wrap;html=1;fillColor=#008a00;fontColor=#ffffff;strokeColor=#005700;" vertex="1" parent="fdIq8-UfXrekywhDJJgM-1">
                    <mxGeometry x="150" y="760" width="120" height="60" as="geometry"/>
                </mxCell>
                <mxCell id="fdIq8-UfXrekywhDJJgM-6" value="Data Access&lt;br&gt;" style="rounded=1;whiteSpace=wrap;html=1;fillColor=#d80073;fontColor=#ffffff;strokeColor=#A50040;" vertex="1" parent="fdIq8-UfXrekywhDJJgM-1">
                    <mxGeometry x="150" y="830" width="120" height="60" as="geometry"/>
                </mxCell>
                <mxCell id="fdIq8-UfXrekywhDJJgM-7" value="" style="aspect=fixed;perimeter=ellipsePerimeter;html=1;align=center;shadow=0;dashed=0;spacingTop=3;image;image=img/lib/active_directory/database.svg;" vertex="1" parent="fdIq8-UfXrekywhDJJgM-1">
                    <mxGeometry x="185" y="1000" width="50" height="37" as="geometry"/>
                </mxCell>
                <mxCell id="fdIq8-UfXrekywhDJJgM-8" value="" style="edgeStyle=none;html=1;" edge="1" parent="fdIq8-UfXrekywhDJJgM-1" source="fdIq8-UfXrekywhDJJgM-9" target="fdIq8-UfXrekywhDJJgM-13">
                    <mxGeometry relative="1" as="geometry"/>
                </mxCell>
                <mxCell id="fdIq8-UfXrekywhDJJgM-9" value="" style="rounded=1;whiteSpace=wrap;html=1;" vertex="1" parent="fdIq8-UfXrekywhDJJgM-1">
                    <mxGeometry x="367.5" y="660" width="200" height="270" as="geometry"/>
                </mxCell>
                <mxCell id="fdIq8-UfXrekywhDJJgM-10" value="Presentation" style="rounded=1;whiteSpace=wrap;html=1;fillColor=#1ba1e2;fontColor=#ffffff;strokeColor=#006EAF;" vertex="1" parent="fdIq8-UfXrekywhDJJgM-1">
                    <mxGeometry x="390" y="690" width="120" height="60" as="geometry"/>
                </mxCell>
                <mxCell id="fdIq8-UfXrekywhDJJgM-11" value="Business" style="rounded=1;whiteSpace=wrap;html=1;fillColor=#008a00;fontColor=#ffffff;strokeColor=#005700;" vertex="1" parent="fdIq8-UfXrekywhDJJgM-1">
                    <mxGeometry x="390" y="760" width="120" height="60" as="geometry"/>
                </mxCell>
                <mxCell id="fdIq8-UfXrekywhDJJgM-12" value="Data Access&lt;br&gt;" style="rounded=1;whiteSpace=wrap;html=1;fillColor=#d80073;fontColor=#ffffff;strokeColor=#A50040;" vertex="1" parent="fdIq8-UfXrekywhDJJgM-1">
                    <mxGeometry x="390" y="830" width="120" height="60" as="geometry"/>
                </mxCell>
                <mxCell id="fdIq8-UfXrekywhDJJgM-13" value="" style="aspect=fixed;perimeter=ellipsePerimeter;html=1;align=center;shadow=0;dashed=0;spacingTop=3;image;image=img/lib/active_directory/database.svg;" vertex="1" parent="fdIq8-UfXrekywhDJJgM-1">
                    <mxGeometry x="442.5" y="1000" width="50" height="37" as="geometry"/>
                </mxCell>
                <mxCell id="fdIq8-UfXrekywhDJJgM-14" value="" style="edgeStyle=none;html=1;" edge="1" parent="fdIq8-UfXrekywhDJJgM-1" source="fdIq8-UfXrekywhDJJgM-15" target="fdIq8-UfXrekywhDJJgM-19">
                    <mxGeometry relative="1" as="geometry"/>
                </mxCell>
                <mxCell id="fdIq8-UfXrekywhDJJgM-15" value="" style="rounded=1;whiteSpace=wrap;html=1;" vertex="1" parent="fdIq8-UfXrekywhDJJgM-1">
                    <mxGeometry x="600" y="660" width="200" height="270" as="geometry"/>
                </mxCell>
                <mxCell id="fdIq8-UfXrekywhDJJgM-16" value="Presentation" style="rounded=1;whiteSpace=wrap;html=1;fillColor=#1ba1e2;fontColor=#ffffff;strokeColor=#006EAF;" vertex="1" parent="fdIq8-UfXrekywhDJJgM-1">
                    <mxGeometry x="640" y="690" width="120" height="60" as="geometry"/>
                </mxCell>
                <mxCell id="fdIq8-UfXrekywhDJJgM-17" value="Business" style="rounded=1;whiteSpace=wrap;html=1;fillColor=#008a00;fontColor=#ffffff;strokeColor=#005700;" vertex="1" parent="fdIq8-UfXrekywhDJJgM-1">
                    <mxGeometry x="640" y="760" width="120" height="60" as="geometry"/>
                </mxCell>
                <mxCell id="fdIq8-UfXrekywhDJJgM-18" value="Data Access&lt;br&gt;" style="rounded=1;whiteSpace=wrap;html=1;fillColor=#d80073;fontColor=#ffffff;strokeColor=#A50040;" vertex="1" parent="fdIq8-UfXrekywhDJJgM-1">
                    <mxGeometry x="640" y="850" width="120" height="40" as="geometry"/>
                </mxCell>
                <mxCell id="fdIq8-UfXrekywhDJJgM-19" value="" style="aspect=fixed;perimeter=ellipsePerimeter;html=1;align=center;shadow=0;dashed=0;spacingTop=3;image;image=img/lib/active_directory/database.svg;" vertex="1" parent="fdIq8-UfXrekywhDJJgM-1">
                    <mxGeometry x="675" y="1000" width="50" height="37" as="geometry"/>
                </mxCell>
                <mxCell id="fdIq8-UfXrekywhDJJgM-20" value="Rezervasyon" style="text;html=1;align=center;verticalAlign=middle;resizable=0;points=[];autosize=1;strokeColor=none;fillColor=none;" vertex="1" parent="fdIq8-UfXrekywhDJJgM-1">
                    <mxGeometry x="165" y="620" width="90" height="20" as="geometry"/>
                </mxCell>
                <mxCell id="fdIq8-UfXrekywhDJJgM-21" value="Hasta Ödeme" style="text;html=1;align=center;verticalAlign=middle;resizable=0;points=[];autosize=1;strokeColor=none;fillColor=none;" vertex="1" parent="fdIq8-UfXrekywhDJJgM-1">
                    <mxGeometry x="405" y="620" width="90" height="20" as="geometry"/>
                </mxCell>
                <mxCell id="fdIq8-UfXrekywhDJJgM-22" value="Hasta Takip" style="text;html=1;align=center;verticalAlign=middle;resizable=0;points=[];autosize=1;strokeColor=none;fillColor=none;" vertex="1" parent="fdIq8-UfXrekywhDJJgM-1">
                    <mxGeometry x="660" y="620" width="80" height="20" as="geometry"/>
                </mxCell>
                <mxCell id="fdIq8-UfXrekywhDJJgM-40" style="edgeStyle=none;html=1;" edge="1" parent="fdIq8-UfXrekywhDJJgM-1" source="fdIq8-UfXrekywhDJJgM-24" target="fdIq8-UfXrekywhDJJgM-35">
                    <mxGeometry relative="1" as="geometry"/>
                </mxCell>
                <mxCell id="fdIq8-UfXrekywhDJJgM-24" value="" style="strokeWidth=1;shadow=0;dashed=0;align=center;html=1;shape=mxgraph.mockup.containers.browserWindow;rSize=0;strokeColor=#666666;strokeColor2=#008cff;strokeColor3=#c4c4c4;mainText=,;recursiveResize=0;" vertex="1" parent="fdIq8-UfXrekywhDJJgM-1">
                    <mxGeometry x="425" y="30" width="335" height="180" as="geometry"/>
                </mxCell>
                <mxCell id="fdIq8-UfXrekywhDJJgM-25" value="Page 1" style="strokeWidth=1;shadow=0;dashed=0;align=center;html=1;shape=mxgraph.mockup.containers.anchor;fontSize=17;fontColor=#666666;align=left;" vertex="1" parent="fdIq8-UfXrekywhDJJgM-24">
                    <mxGeometry x="60" y="12" width="110" height="26" as="geometry"/>
                </mxCell>
                <mxCell id="fdIq8-UfXrekywhDJJgM-26" value="https://www.draw.io" style="strokeWidth=1;shadow=0;dashed=0;align=center;html=1;shape=mxgraph.mockup.containers.anchor;rSize=0;fontSize=17;fontColor=#666666;align=left;" vertex="1" parent="fdIq8-UfXrekywhDJJgM-24">
                    <mxGeometry x="130" y="60" width="250" height="26" as="geometry"/>
                </mxCell>
                <mxCell id="fdIq8-UfXrekywhDJJgM-32" style="edgeStyle=none;html=1;entryX=0.5;entryY=0;entryDx=0;entryDy=0;" edge="1" parent="fdIq8-UfXrekywhDJJgM-1" source="fdIq8-UfXrekywhDJJgM-30" target="fdIq8-UfXrekywhDJJgM-3">
                    <mxGeometry relative="1" as="geometry"/>
                </mxCell>
                <mxCell id="fdIq8-UfXrekywhDJJgM-33" style="edgeStyle=none;html=1;exitX=0.5;exitY=1;exitDx=0;exitDy=0;entryX=0.5;entryY=0;entryDx=0;entryDy=0;" edge="1" parent="fdIq8-UfXrekywhDJJgM-1" source="fdIq8-UfXrekywhDJJgM-30" target="fdIq8-UfXrekywhDJJgM-9">
                    <mxGeometry relative="1" as="geometry"/>
                </mxCell>
                <mxCell id="fdIq8-UfXrekywhDJJgM-34" style="edgeStyle=none;html=1;entryX=0.5;entryY=0;entryDx=0;entryDy=0;" edge="1" parent="fdIq8-UfXrekywhDJJgM-1" source="fdIq8-UfXrekywhDJJgM-30" target="fdIq8-UfXrekywhDJJgM-15">
                    <mxGeometry relative="1" as="geometry"/>
                </mxCell>
                <mxCell id="fdIq8-UfXrekywhDJJgM-30" value="API Gateway" style="rounded=1;whiteSpace=wrap;html=1;" vertex="1" parent="fdIq8-UfXrekywhDJJgM-1">
                    <mxGeometry x="165" y="340" width="605" height="150" as="geometry"/>
                </mxCell>
                <mxCell id="fdIq8-UfXrekywhDJJgM-35" value="web BFF" style="rounded=1;whiteSpace=wrap;html=1;" vertex="1" parent="fdIq8-UfXrekywhDJJgM-1">
                    <mxGeometry x="540" y="385" width="120" height="60" as="geometry"/>
                </mxCell>
                <mxCell id="fdIq8-UfXrekywhDJJgM-37" value="mobile BFF" style="rounded=1;whiteSpace=wrap;html=1;" vertex="1" parent="fdIq8-UfXrekywhDJJgM-1">
                    <mxGeometry x="270" y="390" width="120" height="60" as="geometry"/>
                </mxCell>
                <mxCell id="fdIq8-UfXrekywhDJJgM-39" style="edgeStyle=none;html=1;" edge="1" parent="fdIq8-UfXrekywhDJJgM-1" source="fdIq8-UfXrekywhDJJgM-38" target="fdIq8-UfXrekywhDJJgM-37">
                    <mxGeometry relative="1" as="geometry"/>
                </mxCell>
                <mxCell id="fdIq8-UfXrekywhDJJgM-38" value="" style="outlineConnect=0;dashed=0;verticalLabelPosition=bottom;verticalAlign=top;align=center;html=1;shape=mxgraph.aws3.mobile_client;fillColor=#D2D3D3;gradientColor=none;" vertex="1" parent="fdIq8-UfXrekywhDJJgM-1">
                    <mxGeometry x="144.5" y="80" width="55.5" height="70" as="geometry"/>
                </mxCell>
            </root>
        </mxGraphModel>
    </diagram>
</mxfile>